<svg width="20" height="20" fill="none" xmlns="http://www.w3.org/2000/svg"><path d="M11 10c.104 0 .205.008.305.023a5.55 5.55 0 00-1.048.977H4a1 1 0 00-1 1v1.5C3 14.907 4.579 16 7.5 16a9.35 9.35 0 001.67-.139c.083.329.197.645.336.947A9.917 9.917 0 017.5 17C4.088 17 2 15.554 2 13.5V12a2 2 0 012-2h7zm6-3.5a2.5 2.5 0 11-5 0 2.5 2.5 0 015 0zM14.5 5a1.5 1.5 0 100 3 1.5 1.5 0 000-3zm-7-3a3.5 3.5 0 110 7 3.5 3.5 0 010-7zm0 1a2.5 2.5 0 100 5 2.5 2.5 0 000-5z" fill="#212121"/><path d="M19 14.5a4.5 4.5 0 11-9 0 4.5 4.5 0 019 0zm-4-2a.5.5 0 00-1 0V14h-1.5a.5.5 0 000 1H14v1.5a.5.5 0 001 0V15h1.5a.5.5 0 000-1H15v-1.5z" fill="#212121"/></svg>