<svg width="24" height="28" fill="none" xmlns="http://www.w3.org/2000/svg"><mask id="mask0_0_3334" style="mask-type:alpha" maskUnits="userSpaceOnUse" x="4" y="0" width="16" height="9"><path fill-rule="evenodd" clip-rule="evenodd" d="M4.75.224h15.074v8.702H4.75V.224z" fill="#fff"/></mask><g mask="url(#mask0_0_3334)"><path fill-rule="evenodd" clip-rule="evenodd" d="M15.758 6.759c-.563 0-1.022-.46-1.022-1.032 0-.569.459-1.03 1.022-1.03s1.02.461 1.02 1.03c0 .571-.457 1.032-1.02 1.032zm-6.175 0c-.563 0-1.022-.46-1.022-1.032 0-.569.459-1.03 1.022-1.03s1.02.461 1.02 1.03c0 .571-.457 1.032-1.02 1.032zm6.331-3.931L17.282.545a.103.103 0 00-.035-.141L17.095.31a.102.102 0 00-.14.034l-1.392 2.32a8.244 8.244 0 00-3.259-.667 8.15 8.15 0 00-3.196.646L7.699.272a.105.105 0 00-.14-.034l-.152.094a.103.103 0 00-.035.141l1.387 2.328c-2.34 1.128-4.01 3.356-4.01 6.125l15.075-.034c0-2.743-1.62-4.936-3.91-6.064z" fill="#01C089"/></g><mask id="mask1_0_3334" style="mask-type:alpha" maskUnits="userSpaceOnUse" x="0" y="9" width="4" height="12"><path fill-rule="evenodd" clip-rule="evenodd" d="M0 9.875h3.357V20.45H0V9.875z" fill="#fff"/></mask><g mask="url(#mask1_0_3334)"><path fill-rule="evenodd" clip-rule="evenodd" d="M1.68 9.875c-.928 0-1.68.723-1.68 1.61v7.35c0 .892.752 1.615 1.68 1.615.927 0 1.677-.723 1.677-1.616v-7.348c0-.888-.75-1.61-1.677-1.61z" fill="#01C089"/></g><mask id="mask2_0_3334" style="mask-type:alpha" maskUnits="userSpaceOnUse" x="20" y="9" width="4" height="12"><path fill-rule="evenodd" clip-rule="evenodd" d="M20.22 9.875h3.358V20.45H20.22V9.875z" fill="#fff"/></mask><g mask="url(#mask2_0_3334)"><path fill-rule="evenodd" clip-rule="evenodd" d="M21.898 9.875c-.927 0-1.677.723-1.677 1.61v7.35c0 .892.75 1.615 1.677 1.615.93 0 1.68-.723 1.68-1.616v-7.348c0-.888-.75-1.61-1.68-1.61z" fill="#01C089"/></g><mask id="mask3_0_3334" style="mask-type:alpha" maskUnits="userSpaceOnUse" x="4" y="10" width="16" height="18"><path fill-rule="evenodd" clip-rule="evenodd" d="M4.75 10.122h15.074V28H4.75V10.122z" fill="#fff"/></mask><g mask="url(#mask3_0_3334)"><path fill-rule="evenodd" clip-rule="evenodd" d="M4.75 21.536c0 1.14.774 1.14 1.054 1.14H7.72a1.326 1.326 0 00-.007.135v3.575a1.615 1.615 0 003.23 0V22.81c0-.042 0-.09-.005-.135h2.7a1.34 1.34 0 00-.007.135v3.575a1.617 1.617 0 003.235 0V22.81c0-.042-.005-.09-.007-.135h1.886c.28 0 1.08 0 1.08-1.161V10.122H4.75v11.414z" fill="#01C089"/></g></svg>