<svg width="29" height="34" fill="none" xmlns="http://www.w3.org/2000/svg"><mask id="mask0_0_3320" style="mask-type:alpha" maskUnits="userSpaceOnUse" x="0" y="8" width="29" height="26"><path fill-rule="evenodd" clip-rule="evenodd" d="M0 8.412h28.55V34H0V8.412z" fill="#fff"/></mask><g mask="url(#mask0_0_3320)"><path fill-rule="evenodd" clip-rule="evenodd" d="M23.893 18.3c0-2.853 1.647-5.248 3.77-6.392-.071-.11-.056-.081-.131-.185-1.386-1.849-4.263-3.31-6.72-3.31-2.79 0-4.395 1.568-6.273 1.568-2.154 0-2.52-1.413-6.048-1.416-1.407-.005-3.618.682-5.157 2.13C.27 13.569-.662 17.793.457 22.234c.924 3.678 3.438 9.687 7.563 11.542 2.01.904 3.993-1.228 6.798-1.228 2.72 0 4.107 1.569 6.375 1.291 2.87-.35 5.1-4.038 6.795-7.413.279-.554.54-1.551.56-1.597-2.666-.688-4.655-3.351-4.655-6.53z" fill="#01C089"/></g><mask id="mask1_0_3320" style="mask-type:alpha" maskUnits="userSpaceOnUse" x="14" y="0" width="8" height="9"><path fill-rule="evenodd" clip-rule="evenodd" d="M14.102.149h7.137v8.13h-7.137V.15z" fill="#fff"/></mask><g mask="url(#mask1_0_3320)"><path fill-rule="evenodd" clip-rule="evenodd" d="M14.25 8.2c.027.072.816.189 1.841-.147.99-.324 2.19-1.08 3.162-1.977C21.341 4.15 21.372.148 21.146.148c-1.476 0-3.14.807-4.587 2.178-1.875 1.773-2.847 4.476-2.31 5.874z" fill="#01C089"/></g></svg>