<svg width="118" height="9" fill="none" xmlns="http://www.w3.org/2000/svg"><path fill-rule="evenodd" clip-rule="evenodd" d="M98.331 9c-5.252 0-7.89-1.857-10.442-3.654-2.388-1.68-4.644-3.27-9.226-3.27-4.582 0-6.837 1.59-9.225 3.27C66.886 7.143 64.248 9 58.998 9c-5.252 0-7.89-1.857-10.442-3.654-2.388-1.68-4.644-3.27-9.225-3.27-4.582 0-6.837 1.59-9.225 3.27C27.555 7.143 24.916 9 19.666 9c-5.252 0-7.89-1.857-10.44-3.654-2.39-1.68-4.645-3.27-9.226-3.27V0c5.251 0 7.89 1.857 10.44 3.654 2.388 1.68 4.644 3.27 9.225 3.27 4.582 0 6.838-1.59 9.226-3.27C31.442 1.857 34.08 0 39.33 0c5.251 0 7.89 1.857 10.44 3.654 2.389 1.68 4.644 3.27 9.226 3.27 4.582 0 6.837-1.59 9.225-3.27C70.774 1.857 73.412 0 78.662 0c5.253 0 7.891 1.857 10.443 3.654 2.388 1.68 4.644 3.27 9.226 3.27 4.583 0 6.838-1.59 9.227-3.27C110.109 1.857 112.748 0 118 0v2.077c-4.583 0-6.839 1.588-9.227 3.27C106.221 7.142 103.583 9 98.331 9" fill="url(#paint0_linear_0_2278)"/><defs><linearGradient id="paint0_linear_0_2278" x1="0" y1="9" x2="118" y2="9" gradientUnits="userSpaceOnUse"><stop stop-color="#F86B6A"/><stop offset="1" stop-color="#FD954E"/></linearGradient></defs></svg>