<svg width="96" xmlns="http://www.w3.org/2000/svg" height="96"><path d="M54 66c-3.312 0-6-2.688-6-6v-6a6 6 0 016-6h36v18H54zm4.5-13.251a4.5 4.5 0 100 9 4.5 4.5 0 000-9zM45 54v6c0 4.968 4.032 9 9 9h30v12c0 4.968-4.029 9-9 9H12c-4.968 0-9-4.032-9-9V24c0-4.971 4.032-9 9-9h28.896l-7.047 2.937H10.503a4.5 4.5 0 100 9H84V45H54c-4.968 0-9 4.029-9 9zM15.003 33h-6v6h3v-3h3v-3zm0 9h-6v6h3.123l-.123-3 3 .063V42zm0 9h-6v6h3.063l-.063-3h3v-3zm0 9h-6v6h3.063l-.063-3 3 .063V60zm0 9h-6v6h3v-3h3v-3zm0 9h-6v6h3.063l-.063-2.937h3V78zm12-54.186L62.253 9l6.75 14.814h-42zM67.938 15H75c2.628 0 4.968 1.143 6.615 2.937H69.372L67.938 15z"/></svg>