<svg viewBox="0 0 25 25" xmlns="http://www.w3.org/2000/svg"><defs><style>.cls-1{fill:#ff7900}</style></defs><g data-name="time 2" id="time_2"><path class="cls-1" d="M19 7.5a.5.5 0 00.5.5h3a.51.51 0 00.5-.34l1-3a.5.5 0 00-.34-.66.5.5 0 00-.63.31l-.73 2.22A11.49 11.49 0 1012.5 24a11.59 11.59 0 0011-8.18.5.5 0 00-.34-.63.5.5 0 00-.62.34A10.5 10.5 0 1112.5 2a10.46 10.46 0 018.92 5H19.5a.5.5 0 00-.5.5z"/><path class="cls-1" d="M12 6.5v7.1l-4.84 4.53a.51.51 0 000 .71.5.5 0 00.34.16.48.48 0 00.34-.13l5-4.69a.48.48 0 00.16-.36V6.5a.5.5 0 00-1 0z"/></g></svg>